TITLE ""
FILE "1Q_t_2078-2087.mp3" MP3
  TRACK 01 AUDIO
    TITLE "1Q_t_2078-2087_01"
    INDEX 01 00:00:00
  TRACK 02 AUDIO
    TITLE "1Q_t_2078-2087_02"
    INDEX 01 00:01:14
  TRACK 03 AUDIO
    TITLE "1Q_t_2078-2087_03"
    INDEX 01 00:01:25
  TRACK 04 AUDIO
    TITLE "1Q_t_2078-2087_04"
    INDEX 01 00:03:50
  TRACK 05 AUDIO
    TITLE "1Q_t_2078-2087_05"
    INDEX 01 00:03:56
  TRACK 06 AUDIO
    TITLE "1Q_t_2078-2087_06"
    INDEX 01 00:07:65
  TRACK 07 AUDIO
    TITLE "1Q_t_2078-2087_07"
    INDEX 01 00:08:37
  TRACK 08 AUDIO
    TITLE "1Q_t_2078-2087_08"
    INDEX 01 00:09:45
  TRACK 09 AUDIO
    TITLE "1Q_t_2078-2087_09"
    INDEX 01 00:09:54
  TRACK 10 AUDIO
    TITLE "1Q_t_2078-2087_10"
    INDEX 01 00:12:08
  TRACK 11 AUDIO
    TITLE "1Q_t_2078-2087_11"
    INDEX 01 00:12:13
  TRACK 12 AUDIO
    TITLE "1Q_t_2078-2087_12"
    INDEX 01 00:15:69
  TRACK 13 AUDIO
    TITLE "1Q_t_2078-2087_13"
    INDEX 01 00:16:41
  TRACK 14 AUDIO
    TITLE "1Q_t_2078-2087_14"
    INDEX 01 00:17:71
  TRACK 15 AUDIO
    TITLE "1Q_t_2078-2087_15"
    INDEX 01 00:18:04
  TRACK 16 AUDIO
    TITLE "1Q_t_2078-2087_16"
    INDEX 01 00:20:15
  TRACK 17 AUDIO
    TITLE "1Q_t_2078-2087_17"
    INDEX 01 00:20:25
  TRACK 18 AUDIO
    TITLE "1Q_t_2078-2087_18"
    INDEX 01 00:24:32
  TRACK 19 AUDIO
    TITLE "1Q_t_2078-2087_19"
    INDEX 01 00:24:75
  TRACK 20 AUDIO
    TITLE "1Q_t_2078-2087_20"
    INDEX 01 00:26:12
  TRACK 21 AUDIO
    TITLE "1Q_t_2078-2087_21"
    INDEX 01 00:26:21
  TRACK 22 AUDIO
    TITLE "1Q_t_2078-2087_22"
    INDEX 01 00:27:50
  TRACK 23 AUDIO
    TITLE "1Q_t_2078-2087_23"
    INDEX 01 00:27:58
  TRACK 24 AUDIO
    TITLE "1Q_t_2078-2087_24"
    INDEX 01 00:31:66
  TRACK 25 AUDIO
    TITLE "1Q_t_2078-2087_25"
    INDEX 01 00:32:46
  TRACK 26 AUDIO
    TITLE "1Q_t_2078-2087_26"
    INDEX 01 00:33:63
  TRACK 27 AUDIO
    TITLE "1Q_t_2078-2087_27"
    INDEX 01 00:33:74
  TRACK 28 AUDIO
    TITLE "1Q_t_2078-2087_28"
    INDEX 01 00:35:24
  TRACK 29 AUDIO
    TITLE "1Q_t_2078-2087_29"
    INDEX 01 00:35:32
  TRACK 30 AUDIO
    TITLE "1Q_t_2078-2087_30"
    INDEX 01 00:41:45
  TRACK 31 AUDIO
    TITLE "1Q_t_2078-2087_31"
    INDEX 01 00:42:19
  TRACK 32 AUDIO
    TITLE "1Q_t_2078-2087_32"
    INDEX 01 00:43:10
  TRACK 33 AUDIO
    TITLE "1Q_t_2078-2087_33"
    INDEX 01 00:43:20
  TRACK 34 AUDIO
    TITLE "1Q_t_2078-2087_34"
    INDEX 01 00:44:35
  TRACK 35 AUDIO
    TITLE "1Q_t_2078-2087_35"
    INDEX 01 00:44:43
  TRACK 36 AUDIO
    TITLE "1Q_t_2078-2087_36"
    INDEX 01 00:49:40
  TRACK 37 AUDIO
    TITLE "1Q_t_2078-2087_37"
    INDEX 01 00:50:12
  TRACK 38 AUDIO
    TITLE "1Q_t_2078-2087_38"
    INDEX 01 00:51:29
  TRACK 39 AUDIO
    TITLE "1Q_t_2078-2087_39"
    INDEX 01 00:51:43
  TRACK 40 AUDIO
    TITLE "1Q_t_2078-2087_40"
    INDEX 01 00:53:57
  TRACK 41 AUDIO
    TITLE "1Q_t_2078-2087_41"
    INDEX 01 00:53:65
  TRACK 42 AUDIO
    TITLE "1Q_t_2078-2087_42"
    INDEX 01 00:57:75
  TRACK 43 AUDIO
    TITLE "1Q_t_2078-2087_43"
    INDEX 01 00:58:47
  TRACK 44 AUDIO
    TITLE "1Q_t_2078-2087_44"
    INDEX 01 00:59:56
  TRACK 45 AUDIO
    TITLE "1Q_t_2078-2087_45"
    INDEX 01 00:59:64
  TRACK 46 AUDIO
    TITLE "1Q_t_2078-2087_46"
    INDEX 01 01:02:49
  TRACK 47 AUDIO
    TITLE "1Q_t_2078-2087_47"
    INDEX 01 01:02:56
  TRACK 48 AUDIO
    TITLE "1Q_t_2078-2087_48"
    INDEX 01 01:06:72
  TRACK 49 AUDIO
    TITLE "1Q_t_2078-2087_49"
    INDEX 01 01:07:46
  TRACK 50 AUDIO
    TITLE "1Q_t_2078-2087_50"
    INDEX 01 01:08:43
  TRACK 51 AUDIO
    TITLE "1Q_t_2078-2087_51"
    INDEX 01 01:08:53
  TRACK 52 AUDIO
    TITLE "1Q_t_2078-2087_52"
    INDEX 01 01:09:62
  TRACK 53 AUDIO
    TITLE "1Q_t_2078-2087_53"
    INDEX 01 01:09:70
  TRACK 54 AUDIO
    TITLE "1Q_t_2078-2087_54"
    INDEX 01 01:14:56
  TRACK 55 AUDIO
    TITLE "1Q_t_2078-2087_55"
    INDEX 01 01:15:24
  TRACK 56 AUDIO
    TITLE "1Q_t_2078-2087_56"
    INDEX 01 01:16:37
  TRACK 57 AUDIO
    TITLE "1Q_t_2078-2087_57"
    INDEX 01 01:16:45
  TRACK 58 AUDIO
    TITLE "1Q_t_2078-2087_58"
    INDEX 01 01:17:64
  TRACK 59 AUDIO
    TITLE "1Q_t_2078-2087_59"
    INDEX 01 01:17:70
  TRACK 60 AUDIO
    TITLE "1Q_t_2078-2087_60"
    INDEX 01 01:21:40
